<svg width="120" height="120" viewBox="0 0 120 120" fill="none" xmlns="http://www.w3.org/2000/svg">
<path fill-rule="evenodd" clip-rule="evenodd" d="M49.1894 88.1887L69.9265 74.8202C73.8674 72.7939 77.5137 70.0421 80.6581 66.5753C94.6905 51.1046 93.4147 27.2551 77.8086 13.3059C62.2025 -0.643338 38.1757 0.590106 24.1434 16.0608C10.111 31.5316 11.3868 55.3811 26.9929 69.3303C30.5379 72.499 34.5175 74.8842 38.7158 76.4971C29.879 83.5952 27.6957 96.3194 34.0239 105.993C40.1086 115.294 51.9896 118.606 61.8968 114.29C62.6324 114.08 63.3472 113.751 64.0137 113.299L64.8061 112.762C64.9145 112.694 65.0226 112.626 65.1303 112.556L89.3937 96.0835C92.5218 94.1529 96.6449 95.0551 98.6601 98.1355C99.9274 100.073 100.063 102.416 99.2305 104.398C104.525 100.168 106.01 92.7827 102.758 86.8591C99.0443 80.0967 90.5117 77.603 83.6996 81.2893C83.42 81.4406 83.1393 81.5974 82.8576 81.7598C82.5094 81.923 82.1697 82.1155 81.8417 82.338L81.2674 82.7276C81.0871 82.8431 80.9063 82.9608 80.7251 83.0807L56.4617 99.5535C53.3337 101.484 49.2105 100.582 47.1954 97.5015C45.1554 94.3832 46.0482 90.2137 49.1894 88.1887ZM66.2808 24.689C75.2395 32.7545 75.9718 46.5443 67.9165 55.4895C59.8613 64.4347 46.0687 65.1478 37.11 57.0824C28.1514 49.017 27.419 35.2271 35.4743 26.282C43.5296 17.3368 57.3221 16.6236 66.2808 24.689Z" fill="#EA5230"/>
</svg>
